<?xml version="1.0" encoding="UTF-8" standalone="no"?>
<!-- Created with Inkscape (http://www.inkscape.org/) -->

<svg
   xmlns:dc="http://purl.org/dc/elements/1.1/"
   xmlns:cc="http://creativecommons.org/ns#"
   xmlns:rdf="http://www.w3.org/1999/02/22-rdf-syntax-ns#"
   xmlns:svg="http://www.w3.org/2000/svg"
   xmlns="http://www.w3.org/2000/svg"
   xmlns:sodipodi="http://sodipodi.sourceforge.net/DTD/sodipodi-0.dtd"
   xmlns:inkscape="http://www.inkscape.org/namespaces/inkscape"
   width="211.66664mm"
   height="70.55555mm"
   viewBox="0 0 211.66664 70.55555"
   version="1.1"
   id="svg868"
   inkscape:version="0.92.0 r15299"
   sodipodi:docname="avatar.svg">
  <defs
     id="defs862" />
  <sodipodi:namedview
     id="base"
     pagecolor="#ffffff"
     bordercolor="#666666"
     borderopacity="1.0"
     inkscape:pageopacity="0.0"
     inkscape:pageshadow="2"
     inkscape:zoom="1.4"
     inkscape:cx="518.46561"
     inkscape:cy="142.41898"
     inkscape:document-units="mm"
     inkscape:current-layer="layer1"
     showgrid="false"
     fit-margin-top="0"
     fit-margin-left="0"
     fit-margin-right="0"
     fit-margin-bottom="0"
     inkscape:window-width="2560"
     inkscape:window-height="1017"
     inkscape:window-x="-8"
     inkscape:window-y="-8"
     inkscape:window-maximized="1" />
  <metadata
     id="metadata865">
    <rdf:RDF>
      <cc:Work
         rdf:about="">
        <dc:format>image/svg+xml</dc:format>
        <dc:type
           rdf:resource="http://purl.org/dc/dcmitype/StillImage" />
        <dc:title></dc:title>
      </cc:Work>
    </rdf:RDF>
  </metadata>
  <g
     inkscape:label="Layer 1"
     inkscape:groupmode="layer"
     id="layer1"
     transform="translate(2.822211,-133.96628)">
    <path
       style="opacity:1;fill:#ff5555;fill-opacity:1;stroke:none;stroke-width:9.8777771;stroke-linecap:square;stroke-linejoin:miter;stroke-miterlimit:4;stroke-dasharray:none;stroke-opacity:1"
       d="m 67.733337,133.96628 h 70.555553 v 70.55555 H 67.733337 Z"
       id="rect4198" />
    <g
       aria-label="3"
       transform="scale(0.99960024,1.0003999)"
       style="font-style:normal;font-variant:normal;font-weight:500;font-stretch:normal;font-size:31.14740753px;line-height:125%;font-family:MorganBig;-inkscape-font-specification:'MorganBig Medium';text-align:center;letter-spacing:0px;word-spacing:0px;writing-mode:lr-tb;text-anchor:middle;opacity:0.15;fill:#000000;fill-opacity:1;stroke:none;stroke-width:0.46436694"
       id="text4040-5">
      <path
         d="m 111.03137,177.49976 v -2.4295 c 0,-1.7754 -0.46721,-2.99015 -3.20819,-3.67539 v -0.18689 c 1.96229,-0.43606 3.14589,-1.1836 3.14589,-3.95572 v -2.08687 c 0,-3.23933 -2.02458,-4.64097 -5.20162,-4.64097 H 94.336356 l -0.280327,0.28033 v 3.20818 h 10.901591 c 1.30819,0 1.96229,0.21803 1.96229,1.65081 v 2.08688 c 0,1.33934 -0.6541,1.7754 -1.93114,1.7754 h -8.316358 v 3.51966 h 8.472098 c 1.52622,0 1.7754,0.46721 1.7754,1.7754 v 1.86885 c 0,1.58851 -0.24918,2.14917 -1.71311,2.14917 H 93.900292 v 3.23933 l 0.24918,0.24918 h 11.462248 c 2.959,0 5.41965,-0.87213 5.41965,-4.82785 z"
         style="font-style:normal;font-variant:normal;font-weight:500;font-stretch:normal;font-size:31.14740753px;line-height:125%;font-family:MorganBig;-inkscape-font-specification:'MorganBig Medium';text-align:center;writing-mode:lr-tb;text-anchor:middle;fill:#000000;stroke-width:0.46436694"
         id="path1537" />
    </g>
    <g
       aria-label="3"
       transform="scale(0.99960024,1.0003999)"
       style="font-style:normal;font-variant:normal;font-weight:500;font-stretch:normal;font-size:31.14740753px;line-height:125%;font-family:MorganBig;-inkscape-font-specification:'MorganBig Medium';text-align:center;letter-spacing:0px;word-spacing:0px;writing-mode:lr-tb;text-anchor:middle;fill:#000000;fill-opacity:1;stroke:none;stroke-width:0.46436694"
       id="text4044-5">
      <path
         d="m 111.03137,175.64226 v -2.4295 c 0,-1.7754 -0.46721,-2.99015 -3.20819,-3.67539 v -0.18688 c 1.96229,-0.43607 3.14589,-1.18361 3.14589,-3.95573 v -2.08687 c 0,-3.23933 -2.02458,-4.64097 -5.20162,-4.64097 H 94.336356 l -0.280327,0.28033 v 3.20818 h 10.901591 c 1.30819,0 1.96229,0.21804 1.96229,1.65082 v 2.08687 c 0,1.33934 -0.6541,1.77541 -1.93114,1.77541 h -8.316358 v 3.51965 h 8.472098 c 1.52622,0 1.7754,0.46721 1.7754,1.7754 v 1.86885 c 0,1.58852 -0.24918,2.14917 -1.71311,2.14917 H 93.900292 v 3.23933 l 0.24918,0.24918 h 11.462248 c 2.959,0 5.41965,-0.87213 5.41965,-4.82785 z"
         style="font-style:normal;font-variant:normal;font-weight:500;font-stretch:normal;font-size:31.14740753px;line-height:125%;font-family:MorganBig;-inkscape-font-specification:'MorganBig Medium';text-align:center;writing-mode:lr-tb;text-anchor:middle;fill:#ffffff;stroke-width:0.46436694"
         id="path1540" />
    </g>
    <path
       style="opacity:1;fill:#37c8ab;fill-opacity:1;stroke:none;stroke-width:9.8777771;stroke-linecap:square;stroke-linejoin:miter;stroke-miterlimit:4;stroke-dasharray:none;stroke-opacity:1"
       d="m -2.822211,133.96628 h 70.55555 v 70.55555 h -70.55555 z"
       id="rect4235" />
    <g
       aria-label="3"
       transform="scale(0.99960024,1.0003999)"
       style="font-style:normal;font-variant:normal;font-weight:500;font-stretch:normal;font-size:31.14740753px;line-height:125%;font-family:MorganBig;-inkscape-font-specification:'MorganBig Medium';text-align:center;letter-spacing:0px;word-spacing:0px;writing-mode:lr-tb;text-anchor:middle;opacity:0.15;fill:#000000;fill-opacity:1;stroke:none;stroke-width:0.46436694"
       id="text4239">
      <path
         d="m 40.447594,177.49976 v -2.4295 c 0,-1.7754 -0.467211,-2.99015 -3.208183,-3.67539 v -0.18689 c 1.962287,-0.43606 3.145888,-1.1836 3.145888,-3.95572 v -2.08687 c 0,-3.23933 -2.024581,-4.64097 -5.201617,-4.64097 H 23.752583 l -0.280326,0.28033 v 3.20818 h 10.901592 c 1.308192,0 1.962287,0.21803 1.962287,1.65081 v 2.08688 c 0,1.33934 -0.654095,1.7754 -1.931139,1.7754 h -8.316358 v 3.51966 h 8.472095 c 1.526223,0 1.775402,0.46721 1.775402,1.7754 v 1.86885 c 0,1.58851 -0.249179,2.14917 -1.713107,2.14917 H 23.31652 v 3.23933 l 0.249179,0.24918 h 11.462246 c 2.959004,0 5.419649,-0.87213 5.419649,-4.82785 z"
         style="font-style:normal;font-variant:normal;font-weight:500;font-stretch:normal;font-size:31.14740753px;line-height:125%;font-family:MorganBig;-inkscape-font-specification:'MorganBig Medium';text-align:center;writing-mode:lr-tb;text-anchor:middle;fill:#000000;stroke-width:0.46436694"
         id="path1544" />
    </g>
    <g
       aria-label="3"
       transform="scale(0.99960024,1.0003999)"
       style="font-style:normal;font-variant:normal;font-weight:500;font-stretch:normal;font-size:31.14740753px;line-height:125%;font-family:MorganBig;-inkscape-font-specification:'MorganBig Medium';text-align:center;letter-spacing:0px;word-spacing:0px;writing-mode:lr-tb;text-anchor:middle;fill:#000000;fill-opacity:1;stroke:none;stroke-width:0.46436694"
       id="text4243">
      <path
         d="m 40.447594,175.64226 v -2.4295 c 0,-1.7754 -0.467211,-2.99015 -3.208183,-3.67539 v -0.18688 c 1.962287,-0.43607 3.145888,-1.18361 3.145888,-3.95573 v -2.08687 c 0,-3.23933 -2.024581,-4.64097 -5.201617,-4.64097 H 23.752583 l -0.280326,0.28033 v 3.20818 h 10.901592 c 1.308192,0 1.962287,0.21804 1.962287,1.65082 v 2.08687 c 0,1.33934 -0.654095,1.77541 -1.931139,1.77541 h -8.316358 v 3.51965 h 8.472095 c 1.526223,0 1.775402,0.46721 1.775402,1.7754 v 1.86885 c 0,1.58852 -0.249179,2.14917 -1.713107,2.14917 H 23.31652 v 3.23933 l 0.249179,0.24918 h 11.462246 c 2.959004,0 5.419649,-0.87213 5.419649,-4.82785 z"
         style="font-style:normal;font-variant:normal;font-weight:500;font-stretch:normal;font-size:31.14740753px;line-height:125%;font-family:MorganBig;-inkscape-font-specification:'MorganBig Medium';text-align:center;writing-mode:lr-tb;text-anchor:middle;fill:#ffffff;stroke-width:0.46436694"
         id="path1547" />
    </g>
    <path
       style="opacity:1;fill:#ffff00;fill-opacity:1;stroke:none;stroke-width:9.8777771;stroke-linecap:square;stroke-linejoin:miter;stroke-miterlimit:4;stroke-dasharray:none;stroke-opacity:1"
       d="m 138.28889,133.96628 h 70.55555 v 70.55555 h -70.55555 z"
       id="rect4247" />
    <g
       aria-label="3"
       transform="scale(0.99960024,1.0003999)"
       style="font-style:normal;font-variant:normal;font-weight:500;font-stretch:normal;font-size:31.14740753px;line-height:125%;font-family:MorganBig;-inkscape-font-specification:'MorganBig Medium';text-align:center;letter-spacing:0px;word-spacing:0px;writing-mode:lr-tb;text-anchor:middle;opacity:0.15;fill:#000000;fill-opacity:1;stroke:none;stroke-width:0.46436694"
       id="text4251">
      <path
         d="m 181.61514,177.49976 v -2.4295 c 0,-1.7754 -0.46721,-2.99015 -3.20818,-3.67539 v -0.18689 c 1.96229,-0.43606 3.14589,-1.1836 3.14589,-3.95572 v -2.08687 c 0,-3.23933 -2.02458,-4.64097 -5.20162,-4.64097 h -11.4311 l -0.28032,0.28033 v 3.20818 h 10.90159 c 1.30819,0 1.96229,0.21803 1.96229,1.65081 v 2.08688 c 0,1.33934 -0.6541,1.7754 -1.93114,1.7754 h -8.31636 v 3.51966 h 8.47209 c 1.52623,0 1.77541,0.46721 1.77541,1.7754 v 1.86885 c 0,1.58851 -0.24918,2.14917 -1.71311,2.14917 h -11.30651 v 3.23933 l 0.24918,0.24918 h 11.46225 c 2.959,0 5.41964,-0.87213 5.41964,-4.82785 z"
         style="font-style:normal;font-variant:normal;font-weight:500;font-stretch:normal;font-size:31.14740753px;line-height:125%;font-family:MorganBig;-inkscape-font-specification:'MorganBig Medium';text-align:center;writing-mode:lr-tb;text-anchor:middle;fill:#000000;stroke-width:0.46436694"
         id="path1551" />
    </g>
    <g
       aria-label="3"
       transform="scale(0.99960024,1.0003999)"
       style="font-style:normal;font-variant:normal;font-weight:500;font-stretch:normal;font-size:31.14740753px;line-height:125%;font-family:MorganBig;-inkscape-font-specification:'MorganBig Medium';text-align:center;letter-spacing:0px;word-spacing:0px;writing-mode:lr-tb;text-anchor:middle;fill:#1a1a1a;fill-opacity:1;stroke:none;stroke-width:0.46436694"
       id="text4255">
      <path
         d="m 181.61514,175.64226 v -2.4295 c 0,-1.7754 -0.46721,-2.99015 -3.20818,-3.67539 v -0.18688 c 1.96229,-0.43607 3.14589,-1.18361 3.14589,-3.95573 v -2.08687 c 0,-3.23933 -2.02458,-4.64097 -5.20162,-4.64097 h -11.4311 l -0.28032,0.28033 v 3.20818 h 10.90159 c 1.30819,0 1.96229,0.21804 1.96229,1.65082 v 2.08687 c 0,1.33934 -0.6541,1.77541 -1.93114,1.77541 h -8.31636 v 3.51965 h 8.47209 c 1.52623,0 1.77541,0.46721 1.77541,1.7754 v 1.86885 c 0,1.58852 -0.24918,2.14917 -1.71311,2.14917 h -11.30651 v 3.23933 l 0.24918,0.24918 h 11.46225 c 2.959,0 5.41964,-0.87213 5.41964,-4.82785 z"
         style="font-style:normal;font-variant:normal;font-weight:500;font-stretch:normal;font-size:31.14740753px;line-height:125%;font-family:MorganBig;-inkscape-font-specification:'MorganBig Medium';text-align:center;writing-mode:lr-tb;text-anchor:middle;fill:#333333;stroke-width:0.46436694"
         id="path1554" />
    </g>
  </g>
</svg>
